<svg xmlns="http://www.w3.org/2000/svg" xmlns:xlink="http://www.w3.org/1999/xlink" width="4800" zoomAndPan="magnify" viewBox="0 0 3600 3599.999971" height="4800" preserveAspectRatio="xMidYMid meet" version="1.0"><defs><g/></defs><path stroke-linecap="butt" transform="matrix(1.741022, 0, 0, 1.741022, -1620.105601, -1240.12707)" fill="none" stroke-linejoin="miter" d="M 3706.248613 1310.072694 L 2208.457353 -120.476271 L 2195.44192 -120.476271 L 2195.44192 3148.419138 L 2208.457353 3148.419138 L 3706.248613 1718.953858 L 3706.248613 3220.000659 L 1947.076211 3220.000659 C 1656.410905 3220.000659 1379.844716 3143.718684 1117.379889 2991.154736 C 855.637519 2838.593031 644.146256 2631.43875 482.906099 2369.69638 C 321.665943 2107.231553 241.046986 1819.097087 241.046986 1505.295226 C 241.046986 1265.242254 290.575637 1039.290644 389.632937 827.438152 C 488.690238 615.585661 630.047138 425.424811 813.699149 256.953359 C 953.247664 129.697822 1134.009849 25.578839 1355.985705 -55.401346 C 1577.961561 -137.106231 1804.635627 -177.958673 2036.010148 -177.958673 L 3706.248613 -177.958673 Z M 3706.248613 1310.072694 " stroke="#535353" stroke-width="61.083" stroke-opacity="1" stroke-miterlimit="4"/><g fill="#a6a6a6" fill-opacity="1"><g transform="translate(-1502.559414, 4365.963697)"><g><path d="M 6334.40625 -3325.75 L 3727.9375 -5816.203125 L 3704.734375 -5816.203125 L 3704.734375 -123.75 L 3727.9375 -123.75 L 6334.40625 -2614.203125 L 6334.40625 0 L 3271.609375 0 C 2766.304688 0 2285.488281 -132.769531 1829.15625 -398.3125 C 1372.832031 -663.863281 1004.164062 -1024.800781 723.15625 -1481.125 C 442.144531 -1937.445312 301.640625 -2438.882812 301.640625 -2985.4375 C 301.640625 -3403.09375 388.003906 -3796.253906 560.734375 -4164.921875 C 733.472656 -4533.597656 979.679688 -4864.882812 1299.359375 -5158.78125 C 1541.703125 -5380.5 1856.234375 -5562.253906 2242.953125 -5704.046875 C 2629.671875 -5845.847656 3024.117188 -5916.75 3426.296875 -5916.75 L 6334.40625 -5916.75 Z M 6334.40625 -3325.75 "/></g></g></g></svg>